<svg width="550" height="525" viewBox="0 0 550 525" fill="none" xmlns="http://www.w3.org/2000/svg">
<path fill-rule="evenodd" clip-rule="evenodd" d="M204.293 285.015C223.37 285.015 238.836 268.978 238.836 249.196C238.836 229.414 223.37 213.377 204.293 213.377C185.216 213.377 169.751 229.414 169.751 249.196C169.751 268.978 185.216 285.015 204.293 285.015ZM203.8 266.594C213.338 266.594 221.071 258.575 221.071 248.684C221.071 238.793 213.338 230.775 203.8 230.775C194.261 230.775 186.529 238.793 186.529 248.684C186.529 258.575 194.261 266.594 203.8 266.594Z" fill="#D9D9D9"/>
<path d="M203.8 476.389C203.8 458.02 218.16 443.129 235.875 443.129H264.496C266.403 443.129 267.95 444.732 267.95 446.711V521.418C267.95 523.396 266.403 525 264.496 525H235.875C218.16 525 203.8 510.109 203.8 491.74V476.389Z" fill="#D9D9D9"/>
<path d="M267.95 470.249V456.433H298.544V470.249H267.95Z" fill="#D9D9D9"/>
<path d="M298.544 456.433C299.452 456.433 300.35 456.611 301.188 456.959C302.026 457.306 302.788 457.815 303.43 458.456C304.071 459.098 304.58 459.859 304.927 460.697C305.274 461.535 305.453 462.434 305.453 463.341C305.453 464.248 305.274 465.146 304.927 465.984C304.58 466.822 304.071 467.584 303.43 468.225C302.788 468.867 302.026 469.376 301.188 469.723C300.35 470.07 299.452 470.249 298.544 470.249V456.433Z" fill="#D9D9D9"/>
<path d="M267.95 513.743V499.927H298.544V513.743H267.95Z" fill="#D9D9D9"/>
<path d="M298.544 499.927C299.452 499.927 300.35 500.106 301.188 500.453C302.026 500.8 302.788 501.309 303.43 501.95C304.071 502.592 304.58 503.353 304.927 504.191C305.274 505.029 305.453 505.928 305.453 506.835C305.453 507.742 305.274 508.64 304.927 509.478C304.58 510.316 304.071 511.078 303.43 511.719C302.788 512.361 302.026 512.87 301.188 513.217C300.35 513.564 299.452 513.743 298.544 513.743V499.927Z" fill="#D9D9D9"/>
<path d="M107.988 254.742C133.53 228.257 168.172 213.377 204.293 213.377L204.293 230.782C204.129 230.777 203.965 230.775 203.8 230.775C197.946 230.775 192.772 233.795 189.648 238.415C165.082 241.744 142.098 253.383 124.388 271.748C106.479 290.318 95.202 314.481 92.1378 340.278H68.7999C71.9647 308.085 85.7245 277.829 107.988 254.742Z" fill="#D9D9D9"/>
<path d="M71.578 386.33C77.2694 411.929 89.787 435.595 107.988 454.469C133.53 480.954 168.172 495.833 204.293 495.833V471.784C174.323 471.784 145.58 459.438 124.388 437.463C110.575 423.14 100.708 405.49 95.5105 386.33H71.578Z" fill="#D9D9D9"/>
<path d="M524.723 259.644C533.254 261.545 541.843 264.72 550 268.988L540.441 288.632C535.118 285.847 529.583 283.632 524.152 282.115C518.721 280.598 513.5 279.808 508.786 279.79C504.073 279.772 499.96 280.527 496.683 282.01C493.405 283.494 491.027 285.678 489.684 288.438C488.341 291.197 488.06 294.478 488.856 298.094C489.652 301.709 491.51 305.588 494.324 309.509C497.138 313.429 500.853 317.315 505.257 320.944C509.66 324.573 514.666 327.875 519.989 330.66L510.43 350.303C502.272 346.035 494.706 340.757 488.164 334.77C481.622 328.783 476.232 322.205 472.301 315.412C468.37 308.618 465.975 301.742 465.254 295.175C464.533 288.609 465.499 282.481 468.097 277.142C470.696 271.803 474.875 267.357 480.397 264.057C485.919 260.758 492.676 258.67 500.281 257.913C507.887 257.156 516.192 257.744 524.723 259.644Z" fill="#D9D9D9"/>
<path d="M481.96 268.51C480.692 266.982 479.146 265.729 477.41 264.82L442.166 246.379C443.901 247.287 445.448 248.541 446.716 250.068C447.984 251.596 448.95 253.368 449.558 255.283C450.166 257.198 450.404 259.218 450.259 261.228C450.114 263.238 449.589 265.199 448.713 266.999C447.837 268.799 446.628 270.402 445.155 271.717C443.682 273.033 441.973 274.034 440.126 274.664C438.28 275.295 436.332 275.542 434.393 275.392C432.467 275.242 430.587 274.704 428.861 273.806L464.071 292.23C465.807 293.138 467.698 293.683 469.637 293.833C471.576 293.984 473.524 293.737 475.37 293.106C477.217 292.476 478.926 291.474 480.399 290.159C481.872 288.844 483.081 287.241 483.957 285.441C484.833 283.641 485.358 281.68 485.503 279.67C485.648 277.66 485.41 275.639 484.802 273.725C484.194 271.81 483.228 270.038 481.96 268.51Z" fill="#D9D9D9"/>
<path d="M439.227 246.15C437.958 244.622 436.412 243.368 434.677 242.46L407.38 228.177L405.076 229.2C405.817 230.351 406.406 231.603 406.825 232.922C407.433 234.837 407.671 236.857 407.526 238.868C407.381 240.878 406.856 242.839 405.98 244.639C405.104 246.438 403.895 248.042 402.422 249.357C400.948 250.672 399.24 251.673 397.393 252.304C395.546 252.934 393.598 253.181 391.66 253.031C389.733 252.882 387.854 252.343 386.127 251.445L421.338 269.87C423.074 270.778 424.965 271.323 426.904 271.473C428.842 271.623 430.79 271.376 432.637 270.746C434.484 270.115 436.192 269.114 437.666 267.799C439.139 266.483 440.348 264.88 441.224 263.08C442.1 261.281 442.625 259.32 442.77 257.309C442.915 255.299 442.677 253.279 442.069 251.364C441.461 249.449 440.495 247.677 439.227 246.15Z" fill="#D9D9D9"/>
<path d="M398.49 240.72C399.366 238.92 399.892 236.959 400.037 234.949C400.14 233.514 400.319 233.418 400.037 232.014C394.496 234.652 389.073 236.301 384.17 237.643C376.63 239.707 368.735 239.946 364.54 239.946L371.449 244.039L376.63 246.854C378.366 247.762 382.232 248.962 384.17 249.112C386.109 249.263 388.057 249.015 389.904 248.385C391.75 247.755 393.459 246.753 394.932 245.438C396.406 244.123 397.615 242.52 398.49 240.72Z" fill="#D9D9D9"/>
<path d="M173.892 30.7018L37.5492 348.248L162.542 348.465C164.486 348.465 166.412 348.862 168.208 349.633C170.004 350.405 171.636 351.536 173.01 352.961C174.385 354.387 175.475 356.079 176.219 357.941C176.963 359.804 177.346 361.8 177.346 363.816C177.346 365.832 176.963 367.828 176.219 369.69C175.475 371.553 174.385 373.245 173.01 374.671C171.636 376.096 170.004 377.227 168.208 377.998C166.412 378.77 164.486 379.167 162.542 379.167L15.3552 378.912C15.0428 378.924 14.7297 378.926 14.4163 378.917C12.4729 378.864 10.5586 378.415 8.78258 377.595C7.00659 376.775 5.40373 375.601 4.06552 374.138C2.72731 372.676 1.67996 370.955 0.983265 369.073C0.286573 367.191 -0.0458167 365.185 0.00507327 363.17C0.0559633 361.154 0.539319 358.963 1.33004 357.121L146.809 18.296C148.697 13.8636 151.583 9.9288 155.26 6.84168C160.531 2.41536 167.108 0.000144112 173.891 0C180.674 -0.0001441 187.252 2.41479 192.523 6.84089C196.184 9.91423 199.061 13.8278 200.949 18.2363L346.454 357.121C347.245 358.962 347.678 361.155 347.729 363.17C347.78 365.185 347.447 367.191 346.751 369.073C346.054 370.955 345.007 372.676 343.668 374.138C342.33 375.601 340.727 376.775 338.951 377.595C337.175 378.415 335.261 378.864 333.318 378.917C331.374 378.97 329.44 378.625 327.625 377.903C325.81 377.18 324.15 376.094 322.74 374.707C321.33 373.319 320.197 371.45 319.406 369.608L173.892 30.7018Z" fill="#D9D9D9"/>
<path fill-rule="evenodd" clip-rule="evenodd" d="M403.983 356.798C404.792 358.684 405.236 360.718 405.288 362.783C405.34 364.847 405 366.902 404.286 368.83C403.573 370.759 402.501 372.522 401.132 374.02C399.762 375.518 398.121 376.722 396.303 377.562C394.485 378.402 392.526 378.862 390.537 378.916C388.547 378.97 386.567 378.617 384.709 377.877C382.852 377.137 381.153 376.024 379.709 374.602C378.266 373.181 377.106 371.478 376.297 369.591L227.35 22.3845C226.541 20.4978 226.097 18.464 226.045 16.3995C225.993 14.3349 226.333 12.2799 227.047 10.3518C227.76 8.42369 228.832 6.66024 230.202 5.16214C231.571 3.66404 233.212 2.46063 235.03 1.62061C236.848 0.780583 238.807 0.320407 240.797 0.266342L352.514 0.26639C414.024 0.266391 463.889 52.4882 463.889 116.907C463.889 181.326 414.024 233.548 352.514 233.548C352.044 233.548 351.575 233.545 351.106 233.538L403.983 356.798ZM422.617 88.7495C425.42 91.7085 429.805 92.7124 433.674 90.926C438.653 88.6271 440.893 82.5778 438.676 77.4144C436.459 72.251 430.625 69.9288 425.646 72.2277C421.949 73.9346 419.762 77.7091 419.788 81.6534L412.276 85.1216L403.545 64.7872C388.311 48.7177 366.726 40.5007 345.019 42.6147L340.601 32.3254C333.007 33.402 325.43 35.5973 318.076 38.9927C310.721 42.3881 304.079 46.7576 298.226 51.8892L302.643 62.1785C295.919 68.598 290.511 76.2156 286.594 84.5557L331.795 189.831C340.393 192.393 349.471 193.323 358.571 192.436L362.989 202.726C370.583 201.649 378.16 199.454 385.514 196.058C392.869 192.663 399.512 188.294 405.364 183.162L400.947 172.873C416.987 157.559 425.541 135.428 424.218 112.935L415.287 92.1335L422.617 88.7495Z" fill="#D9D9D9"/>
<path fill-rule="evenodd" clip-rule="evenodd" d="M324.136 52.382C331.042 49.1938 338.107 47.0193 345.147 45.7975L399.219 171.732C393.632 176.34 387.346 180.329 380.441 183.518C373.535 186.706 366.47 188.88 359.43 190.102L305.358 64.1673C310.944 59.5598 317.23 55.5702 324.136 52.382ZM325.696 56.3383C331.132 53.8285 336.754 52.2558 342.407 51.5533L393.261 169.992C388.974 173.879 384.085 177.158 378.649 179.668C373.213 182.178 367.591 183.751 361.937 184.453L311.084 66.0146C315.371 62.128 320.259 58.8482 325.696 56.3383Z" fill="#D9D9D9"/>
<ellipse rx="10.4289" ry="10.1788" transform="matrix(0.394534 0.918881 -0.90791 0.419164 340.028 87.5337)" fill="#D9D9D9"/>
<ellipse rx="10.4289" ry="10.1788" transform="matrix(0.394534 0.918881 -0.90791 0.419164 365.688 148.937)" fill="#D9D9D9"/>
</svg>
